<?xml version="1.0" encoding="utf-8"?>
<!-- Generator: Adobe Illustrator 16.0.0, SVG Export Plug-In . SVG Version: 6.00 Build 0)  -->
<!DOCTYPE svg PUBLIC "-//W3C//DTD SVG 1.1//EN" "http://www.w3.org/Graphics/SVG/1.1/DTD/svg11.dtd">
<svg version="1.1" id="Layer_1" xmlns="http://www.w3.org/2000/svg" xmlns:xlink="http://www.w3.org/1999/xlink" x="0px" y="0px"
	 width="500px" height="550px" viewBox="0 0 500 550" enable-background="new 0 0 500 550" xml:space="preserve">
<g>
	<g>
		<path fill="#070707" d="M221.605,176.118c-3.097,11.83-4.99,24.362-2.237,36.445c0.358,1.571,2.769,0.905,2.411-0.665
			c-2.652-11.642-0.744-23.727,2.237-35.115C224.425,175.221,222.014,174.56,221.605,176.118L221.605,176.118z"/>
	</g>
	<g>
		<path fill="#070707" d="M306.092,171.978c0.61,10.46-4.148,20.361-3.13,30.86c0.154,1.59,2.655,1.604,2.5,0
			c-1.018-10.487,3.741-20.393,3.13-30.86C308.498,170.375,305.998,170.366,306.092,171.978L306.092,171.978z"/>
	</g>
	<g>
		<path fill="#070707" d="M302.064,214.467c0.708,5.759-1.889,12.181-5.194,16.812c-0.939,1.315,1.23,2.562,2.158,1.262
			c3.522-4.934,6.29-11.938,5.536-18.074C304.37,212.888,301.868,212.869,302.064,214.467L302.064,214.467z"/>
	</g>
	<g>
		<path fill="#070707" d="M219.941,213.755c7.403,10.109,17.943,11.836,29.704,13.143c1.602,0.178,1.584-2.324,0-2.5
			c-10.729-1.192-20.74-2.612-27.545-11.905C221.158,211.208,218.987,212.453,219.941,213.755L219.941,213.755z"/>
	</g>
	<g>
		<path fill="#070707" d="M264.852,228.688c5.443-0.066,10.861-0.764,16.309-0.854c5.328-0.088,13.586-0.104,16.157,5.602
			c0.661,1.468,2.815,0.195,2.158-1.262c-5.048-11.203-25.322-6.098-34.624-5.985C263.24,226.207,263.238,228.707,264.852,228.688
			L264.852,228.688z"/>
	</g>
	<g>
		<path fill="#070707" d="M236.857,155.612c6.82-10.372,18.72-12.481,30.3-10.906c10.512,1.43,24.82,5.823,31.504,14.484
			c0.97,1.257,3.144,0.015,2.158-1.262c-7.447-9.651-22.861-14.525-34.592-15.849c-12.3-1.389-24.403,1.436-31.529,12.271
			C233.81,155.702,235.976,156.953,236.857,155.612L236.857,155.612z"/>
	</g>
	<g>
		<path fill="#070707" d="M222.547,176.713c-25.671-12.522-42.743-35.78-66.577-50.77c-20.473-12.877-48.222-17.497-69.411-3.533
			c-7.491,4.937-12.643,12.793-12.436,21.913c0.255,11.288,9.535,20.289,17.228,27.404c9.676,8.95,20.757,16.306,31.699,23.588
			c12.401,8.255,24.372,16.853,36.101,26.046c24.948,19.556,49.616,39.304,75.362,57.815c13.125,9.436,26.225,18.909,38.877,28.977
			c10.616,8.448,20.206,17.979,30.082,27.257c16.984,15.954,36.466,31.9,60.926,31.873c17.699-0.021,43.467-9.172,48.416-28.432
			c2.374-9.236-3.98-17.889-10.078-24.058c-7.807-7.895-17.481-13.742-26.656-19.868c-13.608-9.087-27.057-18.503-39.931-28.606
			c-6.919-5.431-13.594-11.162-20.015-17.172c-6.285-5.883-11.777-12.402-17.749-18.569c-1.123-1.16-2.889,0.609-1.768,1.768
			c10.109,10.44,19.739,20.857,30.935,30.216c10.91,9.119,22.475,17.438,34.152,25.538c8.462,5.869,17.126,11.443,25.57,17.335
			c8.179,5.706,16.749,12.317,21.444,21.336c5.747,11.04-2.191,21.139-10.914,27.554c-9.542,7.017-21.702,10.192-33.407,10.459
			c-26.929,0.613-48.046-20.479-66.136-37.764c-21.239-20.296-44.822-37.284-68.625-54.417
			c-26.237-18.884-51.105-39.469-76.682-59.214c-21.944-16.941-47.549-29.843-66.673-50.201
			c-9.178-9.771-13.614-22.707-4.006-33.808c8.943-10.334,24.538-13.403,37.521-12.967c20.933,0.703,39.143,13.064,54.183,26.566
			c14.832,13.315,29.204,27.063,47.306,35.893C222.729,179.575,223.996,177.419,222.547,176.713L222.547,176.713z"/>
	</g>
	<g>
		<path fill="#070707" d="M75.031,136.013c-4.919,7.751-2.94,20.191,0.155,28.329c3.667,9.643,12.99,16.385,21.118,22.079
			c11.435,8.011,23.25,15.421,34.968,23.002c13.72,8.877,26.406,19.106,39.005,29.486c24.485,20.174,48.911,40.224,74.33,59.225
			c13.072,9.771,26.625,19.08,39.073,29.644c11.34,9.622,21.798,20.228,33.514,29.415c10.643,8.348,22.533,15.297,35.912,17.993
			c12.84,2.587,26.896-0.507,38.741-5.651c11.002-4.778,22.531-12.075,27.083-23.712c4.822-12.328-5.548-22.679-14.098-29.817
			c-1.229-1.025-3.007,0.733-1.768,1.768c4.827,4.031,9.511,8.169,12.535,13.777c4.479,8.307,0.443,17.026-5.499,23.232
			c-9.656,10.084-24.084,15.304-37.491,17.859c-31.569,6.019-56.548-18.944-77.821-38.345
			c-23.334-21.279-50.021-38.746-74.942-58.091c-24.919-19.344-48.25-40.72-73.58-59.533c-16.389-12.173-34.326-22.166-50.964-34.01
			c-7.358-5.238-14.863-11.513-18.162-20.184c-2.693-7.081-4.175-18.55,0.048-25.206C78.056,135.909,75.892,134.656,75.031,136.013
			L75.031,136.013z"/>
	</g>
	<g>
		<path fill="#070707" d="M303.433,219.25c7.332,1.179,14.991-0.683,22.203-1.932c11.29-1.956,23.056-4.058,34.484-4.732
			c1.602-0.095,1.611-2.595,0-2.5c-10.158,0.6-20.228,2.711-30.3,4.07c-8.363,1.128-17.252,4.045-25.724,2.683
			C302.521,216.585,301.844,218.994,303.433,219.25L303.433,219.25z"/>
	</g>
	<g>
		<path fill="#070707" d="M369.841,292.602c19.023-5.885,33.062-20.531,49.5-30.987c1.355-0.862,0.103-3.026-1.262-2.159
			c-16.228,10.323-30.125,24.927-48.902,30.736C367.642,290.666,368.297,293.08,369.841,292.602L369.841,292.602z"/>
	</g>
	<g>
		<path fill="#070707" d="M362.22,221.061c2.296-15.27,10.971-28.723,20.964-40.153c9.393-10.743,22.784-24.155,37.822-25.1
			c14.614-0.918,26.208,11.371,30.355,24.305c4.945,15.419-1.674,34.693-8.685,48.482c-0.729,1.434,1.428,2.699,2.158,1.262
			c7.536-14.82,13.625-33.859,8.938-50.408c-3.545-12.515-14.422-24.195-27.744-25.867c-16.163-2.028-29.595,10.182-40.204,20.836
			c-12.35,12.402-23.364,28.35-26.015,45.978C359.572,221.973,361.98,222.651,362.22,221.061L362.22,221.061z"/>
	</g>
	<g>
		<path fill="#070707" d="M361.015,221.979c11.552-0.933,23.26-1.79,34.854-1.79c5.377,0,10.755,0,16.132,0
			c5.437,0,10.641-1.995,16.104-1.341c1.599,0.191,1.58-2.311,0-2.5c-4.899-0.587-9.629,0.795-14.48,1.279
			c-5.23,0.521-10.722,0.062-15.978,0.062c-12.196,0-24.477,0.808-36.631,1.79C359.419,219.607,359.406,222.108,361.015,221.979
			L361.015,221.979z"/>
	</g>
	<g>
		<path fill="#070707" d="M426.772,218.035c5.885,6.248,12.112,12.112,18.698,17.615c4.845,4.049,10.168,7.478,14.98,11.582
			c5.187,4.422,10.089,9.716,11.843,16.461c1.909,7.342-3.257,11.012-9.868,11.545c-14,1.128-26.754-10.104-36.561-18.599
			c-12.685-10.988-26.422-20.67-38.922-31.874c-1.196-1.073-2.971,0.689-1.768,1.768c7.268,6.514,14.949,12.516,22.686,18.457
			c7.701,5.915,14.83,12.431,22.343,18.57c9.981,8.157,22.94,16.651,36.455,13.541c12.927-2.975,8.235-17.319,2.413-24.722
			c-4.586-5.832-10.865-10.316-16.796-14.674c-8.611-6.328-16.416-13.665-23.736-21.437
			C427.433,215.091,425.668,216.862,426.772,218.035L426.772,218.035z"/>
	</g>
	<g>
		<path fill="#070707" d="M435.258,223.951c-16.521-0.882-33.151-0.988-49.646,0.447c-1.594,0.139-1.606,2.64,0,2.5
			c16.494-1.436,33.124-1.329,49.646-0.447C436.869,226.537,436.861,224.037,435.258,223.951L435.258,223.951z"/>
	</g>
	<g>
		<path fill="#070707" d="M385.429,224.122c-3.61,1.87-6.313,5.3-4.025,9.312c0.798,1.4,2.958,0.141,2.158-1.262
			c-1.575-2.763,0.825-4.699,3.129-5.893C388.122,225.539,386.857,223.382,385.429,224.122L385.429,224.122z"/>
	</g>
	<g>
		<path fill="#070707" d="M381.405,233.883c12.853,7.786,24.906,16.758,37.242,25.316c6.438,4.467,13.002,8.744,19.771,12.694
			c5.571,3.252,11.304,5.758,17.861,5.545c1.607-0.053,1.613-2.553,0-2.5c-7.435,0.242-13.537-3.361-19.726-7.046
			c-6.207-3.697-12.192-7.764-18.126-11.88c-11.845-8.218-23.419-16.812-35.761-24.288
			C381.284,230.887,380.028,233.049,381.405,233.883L381.405,233.883z"/>
	</g>
	<g>
		<path fill="#070707" d="M363.88,209.81c-8.591-5.731-15.747-13.102-23.003-20.378c-1.14-1.143-2.907,0.625-1.768,1.768
			c7.409,7.43,14.74,14.919,23.509,20.769C363.964,212.866,365.214,210.699,363.88,209.81L363.88,209.81z"/>
	</g>
	<g>
		<path fill="#070707" d="M335.829,180.59c-1.635-8.999,12.494-6.723,17.562-5.352c8.018,2.17,13.927,8.66,21.304,12.131
			c1.45,0.682,2.72-1.473,1.262-2.159c-5.283-2.485-9.789-6.326-14.812-9.27c-4.383-2.569-9.082-3.848-14.105-4.283
			c-6.886-0.597-15.188,0.966-13.619,9.598C333.707,182.839,336.116,182.166,335.829,180.59L335.829,180.59z"/>
	</g>
	<g>
		<path fill="#070707" d="M167.788,233.262c-3.773-4.781-11.749-1.781-16.425-0.241c-9.1,2.996-18.2,6.071-26.275,11.344
			c-14.932,9.75-26.531,29.177-27.01,47.131c-0.043,1.613,2.457,1.609,2.5,0c0.427-15.999,10.158-32.356,22.249-42.381
			c7.059-5.853,15.869-9.206,24.443-12.125c4.54-1.545,15.087-6.601,18.75-1.96C167.019,236.295,168.775,234.513,167.788,233.262
			L167.788,233.262z"/>
	</g>
	<g>
		<path fill="#070707" d="M130.412,240.671c-14.293-10.881-29.565-20.421-43.65-31.611c-4.854-3.857-11.62-8.78-13.656-14.916
			c-2.116-6.376,13.826-4.807,17.5-6.775c1.421-0.762,0.159-2.92-1.262-2.159c-5.396,2.892-16.708-1.26-18.813,6.667
			c-1.447,5.447,6.006,11.586,9.35,14.633c15.082,13.74,33.102,24.012,49.27,36.319
			C130.434,243.806,131.676,241.633,130.412,240.671L130.412,240.671z"/>
	</g>
	<g>
		<path fill="#070707" d="M82.829,176.886c7.273,6.854,8.933,17.422,15.207,25.046c0.481,0.585,1.649,0.445,1.963-0.253
			c2.074-4.613,1.063-11.061-0.894-15.574c-0.64-1.476-2.793-0.201-2.158,1.262c1.554,3.584,2.544,9.377,0.894,13.05
			c0.654-0.084,1.309-0.169,1.963-0.253c-6.29-7.644-7.875-18.137-15.207-25.046C83.425,174.014,81.654,175.779,82.829,176.886
			L82.829,176.886z"/>
	</g>
	<g>
		<path fill="#070707" d="M71.201,189.879c-9.481,9.501,5.238,22.662,12.012,28.552c12.392,10.774,26.908,17.989,40.123,27.529
			c1.31,0.946,2.556-1.224,1.262-2.158c-11.238-8.114-23.551-14.452-34.541-22.982c-6.249-4.851-26.359-19.882-17.088-29.173
			C74.108,190.504,72.34,188.737,71.201,189.879L71.201,189.879z"/>
	</g>
	<g>
		<path fill="#070707" d="M99.825,326.719c8.978,10.464,20.063,17.72,33.151,21.988c6.823,2.225,13.939,3.502,21.02,4.577
			c3.905,0.593,7.789,1.165,11.744,1.168c5.049,0.004,9.979-0.638,15.027-0.086c1.602,0.175,1.584-2.327,0-2.5
			c-8.229-0.899-16.344,0.383-24.603-0.773c-6.703-0.939-13.356-2.188-19.88-4.001c-13.74-3.815-25.418-11.333-34.691-22.141
			C100.542,323.726,98.781,325.502,99.825,326.719L99.825,326.719z"/>
	</g>
	<g>
		<path fill="#070707" d="M222.362,350.343c12.809,0.283,24.38-4.28,36.472-7.786c5.324-1.544,10.721-2.907,15.821-5.114
			c3.172-1.372,8.158-5.232,11.665-4.992c1.61,0.11,1.6-2.391,0-2.5c-2.521-0.173-5.637,1.893-7.804,2.92
			c-4.94,2.343-9.853,4.249-15.114,5.791c-13.434,3.936-26.813,9.496-41.04,9.182C220.749,347.807,220.752,350.308,222.362,350.343
			L222.362,350.343z"/>
	</g>
	<g>
		<path fill="#070707" d="M250.805,300.155c-6.43,3-16.427,3.885-19.682,11.183c-0.329,0.737-0.089,1.588,0.747,1.836
			c4.336,1.286,8.733,0.74,13.116-0.021c5.09-0.884,11.369-3.397,16.404-1.321c1.49,0.615,2.133-1.805,0.664-2.41
			c-9.274-3.825-19.82,4.218-29.52,1.342c0.249,0.611,0.498,1.224,0.747,1.836c2.972-6.666,12.82-7.503,18.784-10.286
			C253.526,301.633,252.256,299.478,250.805,300.155L250.805,300.155z"/>
	</g>
	<g>
		<path fill="#070707" d="M351.883,374.321c4.052,8.636,7.605,17.632,12.899,25.613c2.294,3.458,5.575,8.737,10.322,8.467
			c4.963-0.283,4.079-6.801,3.228-9.871c-0.798-2.874-2.193-5.606-3.44-8.303c-2.322-5.017-3.754-10.733-5.516-15.975
			c-0.511-1.521-2.926-0.868-2.41,0.664c1.843,5.482,3.415,11.291,5.767,16.572c0.972,2.181,1.989,4.316,2.814,6.562
			c0.867,2.361,1.934,10.078-3.084,7.084c-4.174-2.49-7.148-8.893-9.363-12.955c-3.375-6.188-6.066-12.744-9.059-19.12
			C353.356,371.601,351.202,372.871,351.883,374.321L351.883,374.321z"/>
	</g>
	<g>
		<path fill="#070707" d="M394.247,367.098c-1.706,7.323-4.381,14.497-5.208,22.007c-0.348,3.159-1.223,13.191,3.399,14.042
			c3.934,0.723,6.626-10.422,7.368-12.691c3.148-9.627,5.754-19.536,8.032-29.402c0.362-1.568-2.048-2.235-2.41-0.664
			c-1.462,6.326-3.141,12.533-4.998,18.752c-2.021,6.768-3.576,13.597-6.767,19.951c-1.506,3-2.4-5.094-2.416-5.952
			c-0.061-3.174,0.619-6.356,1.275-9.443c1.143-5.369,2.889-10.59,4.134-15.935C397.022,366.193,394.612,365.527,394.247,367.098
			L394.247,367.098z"/>
	</g>
	<g>
		<path fill="#070707" d="M149.597,222.849c0.767,3.389,0.573,6.893,1.341,10.287c0.356,1.572,2.766,0.905,2.411-0.665
			c-0.767-3.389-0.573-6.893-1.341-10.287C151.652,220.612,149.242,221.279,149.597,222.849L149.597,222.849z"/>
	</g>
	<g>
		<path fill="#070707" d="M106.707,271.006c6.425-2.854,14.033,3.054,18.651,6.985c5.901,5.022,10.142,11.685,12.492,19.039
			c2.637,8.253,1.917,17.195,0.067,25.515c-1.79,8.048-4.813,16.182-11.256,21.638c-1.232,1.043,0.545,2.803,1.768,1.768
			c7.253-6.141,10.257-15.357,12.257-24.351c2.08-9.351,1.868-19.074-1.405-28.11c-2.718-7.505-8.015-14.206-14.317-19.047
			c-5.379-4.132-12.634-8.653-19.519-5.595C103.975,269.501,105.248,271.654,106.707,271.006L106.707,271.006z"/>
	</g>
	<g>
		<path fill="#070707" d="M101.554,326.576c13.474,0.85,22.268-12.967,17.052-25.266c-2.635-6.212-7.852-11.582-15.053-10.982
			c-6.576,0.548-11,7.279-11.536,13.299c-0.143,1.606,2.358,1.593,2.5,0c0.566-6.361,5.967-11.925,12.635-10.617
			c5.334,1.046,8.642,6.997,9.935,11.744c2.82,10.354-4.989,19.987-15.533,19.322C99.943,323.975,99.953,326.476,101.554,326.576
			L101.554,326.576z"/>
	</g>
	<g>
		<path fill="#070707" d="M100.251,325.377c10.947-10.6-4.768-29.494-16.794-19.299c-8.808,7.467-3.275,24.622,9.257,20.287
			c1.508-0.521,0.908-2.832-0.665-2.41c-0.252,0.067-0.505,0.135-0.758,0.203c-1.563,0.419-0.902,2.76,0.665,2.41
			c0.641-0.145,1.284-0.286,1.927-0.423c1.575-0.34,0.907-2.75-0.665-2.41c-0.643,0.137-1.286,0.277-1.927,0.423
			c0.222,0.804,0.443,1.606,0.665,2.41c0.252-0.067,0.505-0.135,0.758-0.203c-0.222-0.804-0.443-1.606-0.665-2.41
			c-9.499,3.285-12.593-7.555-8.343-14.359c7.27-11.64,24.812,4.298,14.778,14.014C97.323,324.732,99.093,326.498,100.251,325.377
			L100.251,325.377z"/>
	</g>
	<g>
		<path fill="#070707" d="M91.006,315.88c3.565,17.6,5.841,36.269,14.702,52.209c3.347,6.021,10.346,16.485,18.084,16.634
			c4.092,0.078,5.535-4.946,6.108-8.071c1.221-6.645-2.231-13.375-5.619-18.816c-4.395-7.059-10.026-13.341-14.755-20.178
			c-5.461-7.896-10.342-16.176-15.79-24.082c-0.908-1.318-3.076-0.069-2.158,1.262c8.18,11.873,15.508,24.211,24.329,35.645
			c4.247,5.505,8.461,11.138,10.732,17.782c1.348,3.945,1.816,16.727-5.51,13.26c-7.392-3.499-12.646-12.96-15.896-20.054
			c-6.647-14.509-8.677-30.757-11.816-46.254C93.097,313.636,90.688,314.307,91.006,315.88L91.006,315.88z"/>
	</g>
	<g>
		<path fill="#070707" d="M83.702,305.719c-8.941-7.584-15.516-17.326-22.81-26.404c-3.397-4.229-6.593-8.541-9.035-13.398
			c-2.45-4.872-4.777-13.212-0.403-17.658c3.444-3.5,9.463,0.483,12.147,2.876c4.966,4.428,7.442,11.703,9.699,17.736
			c4.299,11.491,9.97,22.35,12.338,34.486c0.309,1.582,2.718,0.91,2.411-0.664c-1.507-7.725-4.188-14.981-7.311-22.181
			c-3.113-7.18-5.583-14.651-8.923-21.726c-3.319-7.031-12.197-18.204-21.227-12.995c-9.478,5.467-1.113,21.834,2.917,27.867
			c4.021,6.017,8.904,11.526,13.313,17.255c4.589,5.961,9.36,11.692,15.115,16.572C83.156,308.522,84.934,306.763,83.702,305.719
			L83.702,305.719z"/>
	</g>
	<g>
		<path fill="#070707" d="M133.003,347.751c0.187,9.575,4.55,17.792,14.938,18.19c7.63,0.293,19.56-3.982,18.509-13.294
			c-0.179-1.583-2.681-1.601-2.5,0c0.866,7.674-8.581,10.194-14.594,10.742c-9.721,0.886-13.688-7.207-13.853-15.639
			C135.472,346.141,132.972,346.138,133.003,347.751L133.003,347.751z"/>
	</g>
	<g>
		<path fill="#070707" d="M214.05,364.481c2.937-4.39,11.17-14.091,7.792-19.952c-3.271-5.673-14.245-3.287-19.656-3.023
			c-5.493,0.269-16.975,0.109-20.245,5.761c-1.388,2.398-0.684,4.625,0.588,6.906c2.49,4.464,6.129,8.479,9.432,12.351
			c1.048,1.229,2.808-0.549,1.768-1.768c-2.548-2.986-13.03-12.827-9.036-16.873c3.994-4.045,13.307-3.672,18.487-3.925
			c3.746-0.183,15.018-2.085,16.603,2.136c1.876,4.997-5.336,13.308-7.891,17.126C210.992,364.564,213.159,365.814,214.05,364.481
			L214.05,364.481z"/>
	</g>
	<g>
		<path fill="#070707" d="M253.486,343.908c9.271,5.158,17.057,12.28,24.668,19.583c8.39,8.052,16.996,15.834,25.837,23.39
			c8.11,6.931,16.417,13.649,24.702,20.37c6.834,5.543,14.184,10.405,22.757,12.714c8.173,2.202,17.434,0.978,25.67-0.243
			c9.706-1.438,19.22-4.475,27.694-9.453c5.396-3.169,9.354-8.283,9.144-14.707c-0.203-6.161-5.324-13.99-10.721-16.687
			c-1.438-0.719-2.704,1.438-1.262,2.158c6.556,3.276,11.514,13.209,8.436,20.153c-3.479,7.85-15.257,11.46-22.723,13.675
			c-8.145,2.417-16.694,3.435-25.166,3.635c-9.315,0.22-17.257-2.703-24.979-7.755c-7.104-4.646-13.479-10.544-20.065-15.879
			c-7.891-6.391-15.603-12.999-23.184-19.753c-12.822-11.423-24.383-24.924-39.546-33.359
			C253.338,340.965,252.077,343.125,253.486,343.908L253.486,343.908z"/>
	</g>
	<g>
		<path fill="#070707" d="M387.538,370.893c0.645,2.406,2.435,4.343,4.9,4.897c1.57,0.354,2.237-2.057,0.664-2.41
			c-1.644-0.37-2.724-1.546-3.154-3.151C389.531,368.673,387.12,369.334,387.538,370.893L387.538,370.893z"/>
	</g>
	<g>
		<path fill="#070707" d="M411.689,395.938c5.275,13.713-8.64,20.434-19.606,23.678c-12.961,3.833-27.852,5.185-41.219,3.358
			c-21.511-2.94-37.991-20.437-53.912-33.668c-8.396-6.978-17.376-13.218-25.987-19.923c-4.375-3.407-8.671-6.913-12.905-10.493
			c-2.363-1.997-4.681-4.047-6.983-6.112c-0.559-0.501-6.385-5.448-6.354-5.54c-0.612,0.249-1.224,0.498-1.836,0.747
			c0.24,0.16,0.494,0.293,0.763,0.397c1.453,0.671,2.724-1.483,1.262-2.158c-0.269-0.105-0.523-0.238-0.763-0.398
			c-0.722-0.434-1.585-0.006-1.836,0.747c-0.044,0.133-0.088,0.266-0.133,0.398c-0.137,0.41,0.015,0.921,0.322,1.216
			c18.141,17.428,39.019,31.254,58.144,47.476c9.002,7.635,17.915,15.375,27.983,21.598c9.168,5.667,19.037,8.401,29.772,8.864
			c16.514,0.711,66.172-3.63,55.699-30.851C413.527,393.786,411.109,394.432,411.689,395.938L411.689,395.938z"/>
	</g>
	<g>
		<path fill="#070707" d="M256.894,142.143c-1.715-2.361-0.199-4.484,2.351-5.147c3.442-0.894,5.666,1.829,5.877,5.015
			c0.053,0.8,1.304,0.805,1.25,0c-0.269-4.049-2.984-7.002-7.204-6.275c-3.463,0.596-5.551,4.013-3.354,7.038
			C256.282,143.419,257.368,142.796,256.894,142.143L256.894,142.143z"/>
	</g>
	<g>
		<path fill="#070707" d="M302.105,165.624c-1.89,1.021-1.236-3.213-0.984-4.133c0.386-1.407,1.403-2.572,2.555-3.418
			c2.135-1.568,5.254-2.008,7.671-0.886c3.464,1.609,2.579,5.534,1.071,8.196c-1.079,1.904-2.649,3.577-4.487,4.757
			c-0.968,0.621-1.997,0.748-3.114,0.798c-2.933,0.131-4.265-2.977-1.63-4.683c0.674-0.436,0.048-1.519-0.631-1.079
			c-5.249,3.398,0.229,8.617,4.921,6.573c4.131-1.799,9.426-8.2,7.084-12.972c-1.81-3.688-6.405-4.084-9.859-2.683
			c-4.393,1.782-5.884,6.276-4.594,10.613c0.058,0.193,0.225,0.401,0.437,0.437c0.941,0.158,1.347,0.016,2.192-0.441
			C303.445,166.319,302.814,165.24,302.105,165.624L302.105,165.624z"/>
	</g>
	<g>
		<path fill="#070707" d="M279.381,194.583c2.123,5.285,2.896,11.277,6.399,15.906c3.597,4.752,10.362,5.332,15.812,4.833
			c6.743-0.617,13.141-4.091,17.293-9.4c2.055-2.628,3.39-5.799,5.234-8.575c3.709-5.581,10.214-5.888,16.05-7.532
			c2.741-0.772,9.152-3.675,6.254-7.285c-2.765-3.442-10.261-2.296-13.702-1.016c-11.748,4.371-15.423,20.736-29.403,20.698
			c-0.807-0.002-0.806,1.248,0,1.25c8.725,0.024,14.084-6.255,19.455-12.301c3.456-3.89,7.144-7.584,12.261-9.102
			c2.725-0.809,5.72-0.479,8.406,0.262c3.765,1.039,1.303,3.868-0.738,5.101c-2.243,1.354-5.106,1.805-7.632,2.348
			c-5.66,1.218-9.584,3.265-12.805,8.112c-1.804,2.713-3.093,5.657-5.114,8.243c-2.545,3.253-6.376,5.315-10.176,6.715
			c-6.714,2.473-16.095,2.33-20.747-3.816c-3.112-4.112-3.749-10.062-5.643-14.773C280.289,193.512,279.08,193.834,279.381,194.583
			L279.381,194.583z"/>
	</g>
	<g>
		<path fill="#070707" d="M271.445,193.021c11.052,3.367,24.364,1.646,33.977-4.85c0.664-0.448,0.039-1.532-0.631-1.079
			c-9.35,6.318-22.26,8-33.014,4.724C271.004,191.58,270.677,192.787,271.445,193.021L271.445,193.021z"/>
	</g>
	<g>
		<path fill="#070707" d="M272.461,181.364c10.227,8.393,26.281,2.725,35.644-4.375c0.634-0.48,0.012-1.566-0.631-1.079
			c-8.835,6.699-24.39,12.563-34.128,4.57C272.728,179.974,271.838,180.853,272.461,181.364L272.461,181.364z"/>
	</g>
	<g>
		<path fill="#070707" d="M227.554,193.893c-0.024,0.217-0.193,1.175-0.35,1.107c-0.51-0.222-0.825-0.877-1.061-1.34
			c-0.739-1.45-0.95-3.378-0.109-4.819c0.407-0.698-0.673-1.327-1.079-0.631c-1.223,2.095-0.762,4.936,0.578,6.873
			c0.476,0.687,1.128,1.259,2.005,1.139c0.99-0.136,1.184-1.581,1.266-2.33C228.892,193.092,227.641,193.1,227.554,193.893
			L227.554,193.893z"/>
	</g>
	<g>
		<path fill="#070707" d="M225.627,188.171c2.955,1.409,5.002,4.366,8.177,5.373c2.392,0.759,4.719-1.564,5.801-3.369
			c1.335-2.225,1.388-5.229-0.152-7.333c-0.994-1.357-3.506-1.957-4.979-2.579c-2.633-1.11-5.303-2.145-7.991-3.112
			c-1.848-0.665-3.257,0.003-4.47,1.612c-2.937,3.895,4.606,9.864,7.191,11.643c0.666,0.458,1.29-0.625,0.631-1.079
			c-2.497-1.718-8.548-6.39-6.743-9.933c1.56-3.062,7.244,0.53,9.313,1.362c3.857,1.551,8.077,2.5,6.593,7.699
			c-0.96,3.363-4.074,4.69-6.943,2.811c-1.988-1.302-3.634-3.143-5.797-4.174C225.534,186.747,224.899,187.824,225.627,188.171
			L225.627,188.171z"/>
	</g>
	<g>
		<path fill="#070707" d="M217.312,172.78c-4.792-2.118-2.108-8.621-0.515-12.027c2.335-4.993,6.733-8.851,12.599-7.47
			c4.719,1.111,8.838,5.278,12.713,7.968c3.55,2.464,7.443,3.74,11.61,4.736c5.293,1.265,10.545,2.198,14.716,5.985
			c5.325,4.835,5.216,12.189,1.913,18.048c-3.177,5.637-9.824,9.777-16.27,9.801c-6.165,0.023-11.164-5.074-14.725-9.501
			c-0.505-0.628-1.384,0.262-0.884,0.884c4.077,5.068,8.913,9.262,15.609,9.868c5.861,0.53,12.309-3.681,15.725-8.141
			c8.577-11.199,2.395-23.309-10.311-26.87c-3.598-1.008-7.273-1.604-10.826-2.789c-3.934-1.312-7.261-4.016-10.547-6.446
			c-3.961-2.929-9.791-7.015-14.975-4.476c-5.556,2.722-15.475,17.527-6.464,21.509C217.412,174.182,218.048,173.105,217.312,172.78
			L217.312,172.78z"/>
	</g>
	<path fill="none" stroke="#070707" stroke-width="1.5" stroke-miterlimit="10" d="M263.84,183.223
		c0-6.3-5.105-11.408-11.409-11.408c-6.299,0-11.407,5.108-11.407,11.408c0,6.301,5.107,11.408,11.407,11.408
		C258.734,194.631,263.84,189.524,263.84,183.223z"/>
	<path fill="#070707" d="M307.425,164.821c0-1.777-1.439-3.217-3.216-3.217c-1.779,0-3.217,1.44-3.217,3.217
		c0,1.778,1.438,3.218,3.217,3.218C305.985,168.039,307.425,166.599,307.425,164.821z"/>
	<path fill="#070707" d="M239.572,181.39c0.74-1.945-1.51-4.606-5.021-5.941c-3.516-1.336-6.964-0.844-7.703,1.103
		c-0.741,1.946,1.51,4.606,5.023,5.942C235.381,183.828,238.83,183.335,239.572,181.39z"/>
	<path fill="#070707" d="M217.349,166.714c-1.322,1.338-1.308,3.495,0.031,4.816c1.339,1.322,3.497,1.309,4.817-0.031
		c1.322-1.338,1.309-3.496-0.031-4.816C220.826,165.36,218.67,165.375,217.349,166.714z M222.278,169.653
		c-0.374,0.379-0.984,0.383-1.364,0.009c-0.379-0.375-0.383-0.985-0.01-1.364c0.375-0.378,0.986-0.383,1.365-0.009
		C222.649,168.663,222.652,169.275,222.278,169.653z"/>
	<circle fill="none" stroke="#070707" stroke-width="1.5" stroke-miterlimit="10" cx="223.17" cy="166.982" r="8.726"/>
	<path fill="#070707" d="M246.085,182.469c-1.321,1.339-1.307,3.496,0.031,4.818c1.34,1.321,3.498,1.309,4.819-0.031
		c1.32-1.339,1.308-3.496-0.03-4.818C249.563,181.116,247.406,181.129,246.085,182.469z M251.016,185.408
		c-0.374,0.38-0.984,0.383-1.364,0.009c-0.379-0.375-0.384-0.985-0.009-1.364c0.374-0.378,0.984-0.383,1.363-0.009
		C251.386,184.418,251.392,185.03,251.016,185.408z"/>
	<g>
		<path fill="#070707" d="M256.188,221.021c-1.778,0.608-3.504,1.566-4.647,3.096c-0.69,0.924-1.251,2.239-0.795,3.388
			c0.48,1.21,1.768,1.531,2.954,1.353c2.189-0.328,4.136-1.833,5.778-3.214c0.617-0.52-0.271-1.399-0.885-0.884
			c-1.415,1.191-3.027,2.405-4.865,2.829c-0.692,0.16-1.603,0.102-1.829-0.555c-0.271-0.786,0.281-1.744,0.779-2.354
			c0.977-1.197,2.402-1.961,3.842-2.454C257.277,221.966,256.952,220.759,256.188,221.021L256.188,221.021z"/>
	</g>
	<g>
		<path fill="#070707" d="M252.171,228.945c1.752,5.316,10.499,3.512,12.157-1.044c2.23-6.127-6.404-11.227-10.308-5.699
			c-0.466,0.66,0.619,1.284,1.08,0.631c3.31-4.688,10.443,0.662,7.716,5.281c-1.688,2.86-8.139,4.447-9.44,0.5
			C253.125,227.851,251.918,228.177,252.171,228.945L252.171,228.945z"/>
	</g>
	<g>
		<path fill="#070707" d="M336.99,182.356c2.36,1.7,3.097,4.684,1.564,7.195c-0.421,0.69,0.661,1.318,1.08,0.631
			c1.908-3.128,0.887-6.816-2.014-8.905C336.966,180.805,336.343,181.89,336.99,182.356L336.99,182.356z"/>
	</g>
	<circle fill="none" stroke="#070707" stroke-width="1.5" stroke-miterlimit="10" cx="204.609" cy="388.28" r="24.155"/>
	<path fill="none" stroke="#070707" stroke-width="1.5" stroke-miterlimit="10" d="M217.424,385.228
		c0-5.681-4.607-10.287-10.29-10.287c-5.683,0-10.29,4.606-10.29,10.287c0,5.685,4.607,10.289,10.29,10.289
		C212.817,395.517,217.424,390.912,217.424,385.228z"/>
	<g>
		<path fill="#070707" d="M228.467,190.597c-0.528,1.526-1.106,3.305-0.766,4.937c0.201,0.964,0.987,1.587,1.971,1.433
			c1.959-0.308,3.103-2.812,2.685-4.581c-0.186-0.784-1.391-0.452-1.205,0.332c0.156,0.66-0.004,1.327-0.377,1.939
			c-0.315,0.518-0.823,0.958-1.3,1.079c-0.178,0.045,0.048,0.003-0.057,0.013c-0.049,0.004-0.283-0.016-0.089,0.012
			c-0.055-0.008-0.107-0.024-0.16-0.041c0.167,0.055-0.024-0.021-0.071-0.053c0.141,0.096-0.006-0.019-0.035-0.051
			c0.105,0.115-0.042-0.075-0.065-0.118c-0.007-0.015-0.088-0.266-0.118-0.43c-0.228-1.252,0.367-2.912,0.792-4.139
			C229.937,190.165,228.729,189.84,228.467,190.597L228.467,190.597z"/>
	</g>
	<g>
		<path fill="#070707" d="M85.654,305.542c-8.333-21.201-27.162-36.412-34.439-58.144c-0.254-0.76-1.462-0.435-1.205,0.332
			c7.284,21.752,26.107,36.946,34.439,58.144C84.74,306.615,85.95,306.293,85.654,305.542L85.654,305.542z"/>
	</g>
	<g>
		<path fill="#070707" d="M93.395,315.714c5.995,23.793,17.74,47.143,32.811,66.469c0.495,0.635,1.373-0.257,0.884-0.885
			c-14.939-19.157-26.552-42.35-32.49-65.916C94.403,314.601,93.197,314.932,93.395,315.714L93.395,315.714z"/>
	</g>
	<g>
		<path fill="#070707" d="M144.83,351.161c-0.486,3.276,1.107,6.503,4.701,6.815c3.38,0.294,6.038-1.959,6.367-5.308
			c0.079-0.802-1.172-0.795-1.25,0c-0.254,2.585-2.271,4.166-4.814,4.084c-2.854-0.092-4.179-2.689-3.798-5.26
			C146.152,350.705,144.947,350.366,144.83,351.161L144.83,351.161z"/>
	</g>
	<g>
		<path fill="#070707" d="M37.999,267.377c-15.284,25.677-14.031,58.446-8.562,86.8c0.152,0.791,1.357,0.455,1.205-0.332
			c-5.403-28.013-6.663-60.471,8.436-85.837C39.492,267.312,38.411,266.685,37.999,267.377L37.999,267.377z"/>
	</g>
	<g>
		<path fill="#070707" d="M45.539,281.39c-3.505,12.304-4.451,24.989-4.495,37.734c-0.003,0.807,1.247,0.806,1.25,0
			c0.044-12.63,0.977-25.208,4.45-37.402C46.965,280.945,45.759,280.615,45.539,281.39L45.539,281.39z"/>
	</g>
	<g>
		<path fill="#070707" d="M380.236,151.846c24.529-19.625,51.258-35.827,81.127-45.908c0.76-0.256,0.434-1.464-0.332-1.205
			c-30.071,10.148-56.98,26.468-81.68,46.229C378.723,151.465,379.613,152.344,380.236,151.846L380.236,151.846z"/>
	</g>
	<g>
		<path fill="#070707" d="M423.497,139.867c13.859-6.645,28.221-12.053,42.784-16.933c0.761-0.254,0.435-1.462-0.332-1.205
			c-14.666,4.914-29.127,10.367-43.083,17.059C422.14,139.136,422.774,140.213,423.497,139.867L423.497,139.867z"/>
	</g>
</g>
</svg>
